<svg xmlns="http://www.w3.org/2000/svg" viewBox="0 0 120 80">
  <rect width="120" height="80" fill="#000"/>
  <g fill="#00f" stroke="#00f" stroke-width="1">
    <rect x="5" y="5" width="110" height="8"/>
    <rect x="5" y="67" width="110" height="8"/>
    <rect x="5" y="5" width="8" height="70"/>
    <rect x="107" y="5" width="8" height="70"/>
    <rect x="30" y="5" width="8" height="35"/>
    <rect x="60" y="5" width="8" height="35"/>
    <rect x="90" y="5" width="8" height="35"/>
    <rect x="30" y="45" width="8" height="30"/>
    <rect x="60" y="45" width="8" height="30"/>
    <rect x="90" y="45" width="8" height="30"/>
  </g>
  <circle cx="20" cy="42" r="8" fill="#ff0"/>
  <path d="M20,42 L28,38 L28,46 Z" fill="#000"/>
  <circle cx="55" cy="25" r="4" fill="#f00" opacity="0.9"/>
  <circle cx="80" cy="55" r="4" fill="#f88" opacity="0.9"/>
  <circle cx="19" cy="25" r="2" fill="#fff"/>
  <circle cx="45" cy="55" r="2" fill="#fff"/>
  <circle cx="75" cy="35" r="2" fill="#fff"/>
</svg>
