<svg xmlns="http://www.w3.org/2000/svg" viewBox="0 0 400 220" style="background:#000">
  <rect width="400" height="220" fill="#000"/>
  <g fill="#4CAF50">
    <rect x="30" y="30" width="8" height="8"/><rect x="46" y="30" width="8" height="8"/><rect x="38" y="38" width="16" height="8"/><rect x="26" y="46" width="32" height="8"/><rect x="22" y="54" width="8" height="8"/><rect x="54" y="54" width="8" height="8"/>
    <rect x="90" y="30" width="8" height="8"/><rect x="106" y="30" width="8" height="8"/><rect x="98" y="38" width="16" height="8"/><rect x="86" y="46" width="32" height="8"/><rect x="82" y="54" width="8" height="8"/><rect x="114" y="54" width="8" height="8"/>
    <rect x="150" y="30" width="8" height="8"/><rect x="166" y="30" width="8" height="8"/><rect x="158" y="38" width="16" height="8"/><rect x="146" y="46" width="32" height="8"/><rect x="142" y="54" width="8" height="8"/><rect x="174" y="54" width="8" height="8"/>
    <rect x="210" y="30" width="8" height="8"/><rect x="226" y="30" width="8" height="8"/><rect x="218" y="38" width="16" height="8"/><rect x="206" y="46" width="32" height="8"/><rect x="202" y="54" width="8" height="8"/><rect x="234" y="54" width="8" height="8"/>
    <rect x="270" y="30" width="8" height="8"/><rect x="286" y="30" width="8" height="8"/><rect x="278" y="38" width="16" height="8"/><rect x="266" y="46" width="32" height="8"/><rect x="262" y="54" width="8" height="8"/><rect x="294" y="54" width="8" height="8"/>
    <rect x="330" y="30" width="8" height="8"/><rect x="346" y="30" width="8" height="8"/><rect x="338" y="38" width="16" height="8"/><rect x="326" y="46" width="32" height="8"/><rect x="322" y="54" width="8" height="8"/><rect x="354" y="54" width="8" height="8"/>
  </g>
  <g fill="#FFA500">
    <rect x="30" y="100" width="8" height="8"/><rect x="46" y="100" width="8" height="8"/><rect x="38" y="92" width="16" height="8"/><rect x="34" y="108" width="24" height="8"/>
    <rect x="90" y="100" width="8" height="8"/><rect x="106" y="100" width="8" height="8"/><rect x="98" y="92" width="16" height="8"/><rect x="94" y="108" width="24" height="8"/>
    <rect x="150" y="100" width="8" height="8"/><rect x="166" y="100" width="8" height="8"/><rect x="158" y="92" width="16" height="8"/><rect x="154" y="108" width="24" height="8"/>
    <rect x="210" y="100" width="8" height="8"/><rect x="226" y="100" width="8" height="8"/><rect x="218" y="92" width="16" height="8"/><rect x="214" y="108" width="24" height="8"/>
    <rect x="270" y="100" width="8" height="8"/><rect x="286" y="100" width="8" height="8"/><rect x="278" y="92" width="16" height="8"/><rect x="274" y="108" width="24" height="8"/>
  </g>
  <g fill="#FFA500">
    <rect x="190" y="180" width="20" height="8"/>
    <rect x="184" y="172" width="32" height="8"/>
    <rect x="178" y="164" width="44" height="8"/>
    <rect x="196" y="156" width="8" height="8"/>
  </g>
  <rect x="196" y="144" width="4" height="12" fill="#fff"/>
  <text x="200" y="215" font-family="monospace" font-size="12" fill="#4CAF50" text-anchor="middle">SCORE: 0</text>
</svg>
