<svg xmlns="http://www.w3.org/2000/svg" viewBox="0 0 400 220">
  <rect width="400" height="220" fill="#000"/>
  <rect x="120" y="20" width="160" height="180" rx="8" fill="#111"/>
  <line x1="174" y1="28" x2="174" y2="192" stroke="#444" stroke-width="3"/>
  <line x1="226" y1="28" x2="226" y2="192" stroke="#444" stroke-width="3"/>
  <line x1="128" y1="80" x2="272" y2="80" stroke="#444" stroke-width="3"/>
  <line x1="128" y1="132" x2="272" y2="132" stroke="#444" stroke-width="3"/>
  <g stroke="#FFA500" stroke-width="4" fill="none" stroke-linecap="round">
    <line x1="135" y1="35" x2="165" y2="68"/>
    <line x1="165" y1="35" x2="135" y2="68"/>
  </g>
  <circle cx="200" cy="52" r="16" stroke="#4CAF50" stroke-width="4" fill="none"/>
  <g stroke="#FFA500" stroke-width="4" fill="none" stroke-linecap="round">
    <line x1="238" y1="35" x2="268" y2="68"/>
    <line x1="268" y1="35" x2="238" y2="68"/>
  </g>
  <circle cx="151" cy="106" r="16" stroke="#4CAF50" stroke-width="4" fill="none"/>
  <g stroke="#FFA500" stroke-width="4" fill="none" stroke-linecap="round">
    <line x1="187" y1="88" x2="217" y2="122"/>
    <line x1="217" y1="88" x2="187" y2="122"/>
  </g>
  <circle cx="253" cy="106" r="16" stroke="#4CAF50" stroke-width="4" fill="none"/>
  <circle cx="151" cy="158" r="16" stroke="#4CAF50" stroke-width="4" fill="none"/>
  <circle cx="200" cy="158" r="16" stroke="#4CAF50" stroke-width="4" fill="none"/>
  <line x1="120" y1="158" x2="280" y2="158" stroke="#FFA500" stroke-width="5" opacity="0.6"/>
  <text x="200" y="215" font-family="monospace" font-size="11" fill="#FFA500" text-anchor="middle">Rock · Paper · Scissors</text>
</svg>
