<svg xmlns="http://www.w3.org/2000/svg" viewBox="0 0 120 80">
  <rect width="120" height="80" fill="#111"/>
  <rect x="30" y="5" width="60" height="70" fill="#000" stroke="#333" stroke-width="1"/>
  <rect x="30" y="55" width="10" height="10" fill="#00f0f0"/>
  <rect x="40" y="55" width="10" height="10" fill="#00f0f0"/>
  <rect x="50" y="55" width="10" height="10" fill="#00f0f0"/>
  <rect x="60" y="55" width="10" height="10" fill="#00f0f0"/>
  <rect x="30" y="65" width="10" height="10" fill="#ff0"/>
  <rect x="40" y="65" width="10" height="10" fill="#ff0"/>
  <rect x="50" y="65" width="10" height="10" fill="#0f0"/>
  <rect x="60" y="65" width="10" height="10" fill="#0f0"/>
  <rect x="70" y="65" width="10" height="10" fill="#f00"/>
  <rect x="80" y="65" width="10" height="10" fill="#f00"/>
  <rect x="60" y="45" width="10" height="10" fill="#f0a"/>
  <rect x="60" y="35" width="10" height="10" fill="#f0a"/>
  <rect x="70" y="35" width="10" height="10" fill="#f0a"/>
  <rect x="80" y="35" width="10" height="10" fill="#f0a"/>
  <rect x="40" y="20" width="10" height="10" fill="#fa0"/>
  <rect x="50" y="20" width="10" height="10" fill="#fa0"/>
  <rect x="50" y="10" width="10" height="10" fill="#fa0"/>
  <rect x="60" y="10" width="10" height="10" fill="#fa0"/>
</svg>
